<?xml version="1.0" encoding="UTF-8"?>
<svg xmlns="http://www.w3.org/2000/svg" style="display: none;">
  
    <symbol id="un-anchor">
      <svg xmlns="http://www.w3.org/2000/svg" viewBox="0 0 24 24"><path d="M19,13H17a1,1,0,0,0,0,2h.91A6,6,0,0,1,13,19.91V11h1a1,1,0,0,0,0-2H13V7.82a3,3,0,1,0-2,0V9H10a1,1,0,0,0,0,2h1v8.91A6,6,0,0,1,6.09,15H7a1,1,0,0,0,0-2H5a1,1,0,0,0-1,1,8,8,0,0,0,16,0A1,1,0,0,0,19,13ZM12,6a1,1,0,1,1,1-1A1,1,0,0,1,12,6Z"/></svg>
    </symbol>

    <symbol id="un-angle-double-down">
      <svg xmlns="http://www.w3.org/2000/svg" viewBox="0 0 24 24"><path d="M11.29,11.46a1,1,0,0,0,1.42,0l3-3A1,1,0,1,0,14.29,7L12,9.34,9.71,7A1,1,0,1,0,8.29,8.46Zm3,1.08L12,14.84l-2.29-2.3A1,1,0,0,0,8.29,14l3,3a1,1,0,0,0,1.42,0l3-3a1,1,0,0,0-1.42-1.42Z"/></svg>
    </symbol>

    <symbol id="un-angle-double-up">
      <svg xmlns="http://www.w3.org/2000/svg" viewBox="0 0 24 24"><path d="M12.71,12.54a1,1,0,0,0-1.42,0l-3,3A1,1,0,0,0,9.71,17L12,14.66,14.29,17a1,1,0,0,0,1.42,0,1,1,0,0,0,0-1.42Zm-3-1.08L12,9.16l2.29,2.3a1,1,0,0,0,1.42,0,1,1,0,0,0,0-1.42l-3-3a1,1,0,0,0-1.42,0l-3,3a1,1,0,0,0,1.42,1.42Z"/></svg>
    </symbol>

    <symbol id="un-bars">
      <svg xmlns="http://www.w3.org/2000/svg" viewBox="0 0 24 24"><path d="M3,8H21a1,1,0,0,0,0-2H3A1,1,0,0,0,3,8Zm18,8H3a1,1,0,0,0,0,2H21a1,1,0,0,0,0-2Zm0-5H3a1,1,0,0,0,0,2H21a1,1,0,0,0,0-2Z"/></svg>
    </symbol>

    <symbol id="un-bell">
      <svg xmlns="http://www.w3.org/2000/svg" data-name="Layer 1" viewBox="0 0 24 24"><path d="M18,13.18V10a6,6,0,0,0-5-5.91V3a1,1,0,0,0-2,0V4.09A6,6,0,0,0,6,10v3.18A3,3,0,0,0,4,16v2a1,1,0,0,0,1,1H8.14a4,4,0,0,0,7.72,0H19a1,1,0,0,0,1-1V16A3,3,0,0,0,18,13.18ZM8,10a4,4,0,0,1,8,0v3H8Zm4,10a2,2,0,0,1-1.72-1h3.44A2,2,0,0,1,12,20Zm6-3H6V16a1,1,0,0,1,1-1H17a1,1,0,0,1,1,1Z"/></svg>
    </symbol>

    <symbol id="un-bold">
      <svg xmlns="http://www.w3.org/2000/svg" data-name="Layer 1" viewBox="0 0 24 24"><path d="M16.5,9.5A3.5,3.5,0,0,0,13,6H8.5a1,1,0,0,0-1,1V17a1,1,0,0,0,1,1H13a3.49,3.49,0,0,0,2.44-6A3.5,3.5,0,0,0,16.5,9.5ZM13,16H9.5V13H13a1.5,1.5,0,0,1,0,3Zm0-5H9.5V8H13a1.5,1.5,0,0,1,0,3Z"/></svg>
    </symbol>

    <symbol id="un-bookmark">
      <svg xmlns="http://www.w3.org/2000/svg" viewBox="0 0 24 24"><path d="M16,2H8A3,3,0,0,0,5,5V21a1,1,0,0,0,.5.87,1,1,0,0,0,1,0L12,18.69l5.5,3.18A1,1,0,0,0,18,22a1,1,0,0,0,.5-.13A1,1,0,0,0,19,21V5A3,3,0,0,0,16,2Zm1,17.27-4.5-2.6a1,1,0,0,0-1,0L7,19.27V5A1,1,0,0,1,8,4h8a1,1,0,0,1,1,1Z"/></svg>
    </symbol>

    <symbol id="un-briefcase-alt">
      <svg xmlns="http://www.w3.org/2000/svg" viewBox="0 0 24 24"><path d="M19,6.5H16v-1a3,3,0,0,0-3-3H11a3,3,0,0,0-3,3v1H5a3,3,0,0,0-3,3v9a3,3,0,0,0,3,3H19a3,3,0,0,0,3-3v-9A3,3,0,0,0,19,6.5Zm-9-1a1,1,0,0,1,1-1h2a1,1,0,0,1,1,1v1H10Zm10,13a1,1,0,0,1-1,1H5a1,1,0,0,1-1-1V13a21.27,21.27,0,0,0,3,.94v.59a1,1,0,0,0,2,0v-.21a23,23,0,0,0,3,.21,23,23,0,0,0,3-.21v.21a1,1,0,0,0,2,0v-.59A21.27,21.27,0,0,0,20,13Zm0-7.69a20.39,20.39,0,0,1-3,1V11.5a1,1,0,0,0-2,0v.74a20.11,20.11,0,0,1-6,0V11.5a1,1,0,0,0-2,0v.33a20.39,20.39,0,0,1-3-1V9.5a1,1,0,0,1,1-1H19a1,1,0,0,1,1,1Z"/></svg>
    </symbol>

    <symbol id="un-calender">
      <svg xmlns="http://www.w3.org/2000/svg" viewBox="0 0 24 24"><path d="M19,4H17V3a1,1,0,0,0-2,0V4H9V3A1,1,0,0,0,7,3V4H5A3,3,0,0,0,2,7V19a3,3,0,0,0,3,3H19a3,3,0,0,0,3-3V7A3,3,0,0,0,19,4Zm1,15a1,1,0,0,1-1,1H5a1,1,0,0,1-1-1V12H20Zm0-9H4V7A1,1,0,0,1,5,6H7V7A1,1,0,0,0,9,7V6h6V7a1,1,0,0,0,2,0V6h2a1,1,0,0,1,1,1Z"/></svg>
    </symbol>

    <symbol id="un-angle-down">
      <svg xmlns="http://www.w3.org/2000/svg" viewBox="0 0 24 24"><path d="M17,9.17a1,1,0,0,0-1.41,0L12,12.71,8.46,9.17a1,1,0,0,0-1.41,0,1,1,0,0,0,0,1.42l4.24,4.24a1,1,0,0,0,1.42,0L17,10.59A1,1,0,0,0,17,9.17Z"/></svg>
    </symbol>

    <symbol id="un-angle-left">
      <svg xmlns="http://www.w3.org/2000/svg" viewBox="0 0 24 24"><path d="M11.29,12l3.54-3.54a1,1,0,0,0,0-1.41,1,1,0,0,0-1.42,0L9.17,11.29a1,1,0,0,0,0,1.42L13.41,17a1,1,0,0,0,.71.29,1,1,0,0,0,.71-.29,1,1,0,0,0,0-1.41Z"/></svg>
    </symbol>

    <symbol id="un-angle-right">
      <svg xmlns="http://www.w3.org/2000/svg" viewBox="0 0 24 24"><path d="M14.83,11.29,10.59,7.05a1,1,0,0,0-1.42,0,1,1,0,0,0,0,1.41L12.71,12,9.17,15.54a1,1,0,0,0,0,1.41,1,1,0,0,0,.71.29,1,1,0,0,0,.71-.29l4.24-4.24A1,1,0,0,0,14.83,11.29Z"/></svg>
    </symbol>

    <symbol id="un-angle-up">
      <svg xmlns="http://www.w3.org/2000/svg" viewBox="0 0 24 24"><path d="M17,13.41,12.71,9.17a1,1,0,0,0-1.42,0L7.05,13.41a1,1,0,0,0,0,1.42,1,1,0,0,0,1.41,0L12,11.29l3.54,3.54a1,1,0,0,0,.7.29,1,1,0,0,0,.71-.29A1,1,0,0,0,17,13.41Z"/></svg>
    </symbol>

    <symbol id="un-award">
      <svg xmlns="http://www.w3.org/2000/svg" data-name="Layer 1" viewBox="0 0 24 24"><path d="M20.87,17.25l-2.71-4.68A6.9,6.9,0,0,0,19,9.25a7,7,0,0,0-14,0,6.9,6.9,0,0,0,.84,3.32L3.13,17.25A1,1,0,0,0,4,18.75l2.87,0,1.46,2.46a1,1,0,0,0,.18.22,1,1,0,0,0,.69.28h.14a1,1,0,0,0,.73-.49L12,17.9l1.93,3.35a1,1,0,0,0,.73.48h.14a1,1,0,0,0,.7-.28.87.87,0,0,0,.17-.21l1.46-2.46,2.87,0a1,1,0,0,0,.87-.5A1,1,0,0,0,20.87,17.25ZM9.19,18.78,8.3,17.29a1,1,0,0,0-.85-.49l-1.73,0,1.43-2.48a7,7,0,0,0,3.57,1.84ZM12,14.25a5,5,0,1,1,5-5A5,5,0,0,1,12,14.25Zm4.55,2.55a1,1,0,0,0-.85.49l-.89,1.49-1.52-2.65a7.06,7.06,0,0,0,3.56-1.84l1.43,2.48Z"/></svg>
    </symbol>

    <symbol id="un-chart-pie">
      <svg xmlns="http://www.w3.org/2000/svg" viewBox="0 0 24 24"><path d="M12,2a10,10,0,1,0,4.93,18.69l.07,0,.05,0A10,10,0,0,0,12,2Zm1,2.07A8,8,0,0,1,19.93,11H13ZM12,20A8,8,0,0,1,11,4.07V12a1.09,1.09,0,0,0,.07.35l0,.08,0,.07,4,6.87A7.81,7.81,0,0,1,12,20Zm4.83-1.64L13.73,13h6.2A8,8,0,0,1,16.83,18.36Z"/></svg>
    </symbol>

    <symbol id="un-check-circle">
      <svg xmlns="http://www.w3.org/2000/svg" viewBox="0 0 24 24"><path d="M14.72,8.79l-4.29,4.3L8.78,11.44a1,1,0,1,0-1.41,1.41l2.35,2.36a1,1,0,0,0,.71.29,1,1,0,0,0,.7-.29l5-5a1,1,0,0,0,0-1.42A1,1,0,0,0,14.72,8.79ZM12,2A10,10,0,1,0,22,12,10,10,0,0,0,12,2Zm0,18a8,8,0,1,1,8-8A8,8,0,0,1,12,20Z"/></svg>
    </symbol>

    <symbol id="un-check">
      <svg xmlns="http://www.w3.org/2000/svg" viewBox="0 0 24 24"><path d="M18.71,7.21a1,1,0,0,0-1.42,0L9.84,14.67,6.71,11.53A1,1,0,1,0,5.29,13l3.84,3.84a1,1,0,0,0,1.42,0l8.16-8.16A1,1,0,0,0,18.71,7.21Z"/></svg>
    </symbol>

    <symbol id="un-check-square">
      <svg xmlns="http://www.w3.org/2000/svg" viewBox="0 0 24 24"><path d="M10.21,14.75a1,1,0,0,0,1.42,0l4.08-4.08a1,1,0,0,0-1.42-1.42l-3.37,3.38L9.71,11.41a1,1,0,0,0-1.42,1.42ZM21,2H3A1,1,0,0,0,2,3V21a1,1,0,0,0,1,1H21a1,1,0,0,0,1-1V3A1,1,0,0,0,21,2ZM20,20H4V4H20Z"/></svg>
    </symbol>

    <symbol id="un-clock">
      <svg id="Layer_1" data-name="Layer 1" xmlns="http://www.w3.org/2000/svg" viewBox="0 0 24 24"><path d="M15.09814,12.63379,13,11.42285V7a1,1,0,0,0-2,0v5a.99985.99985,0,0,0,.5.86621l2.59814,1.5a1.00016,1.00016,0,1,0,1-1.73242ZM12,2A10,10,0,1,0,22,12,10.01114,10.01114,0,0,0,12,2Zm0,18a8,8,0,1,1,8-8A8.00917,8.00917,0,0,1,12,20Z"/></svg>
    </symbol>

    <symbol id="un-brackets-curly">
      <svg xmlns="http://www.w3.org/2000/svg" data-name="Layer 1" viewBox="0 0 24 24"><path d="M6,6A2,2,0,0,1,8,4,1,1,0,0,0,8,2,4,4,0,0,0,4,6V9a2,2,0,0,1-2,2,1,1,0,0,0,0,2,2,2,0,0,1,2,2v3a4,4,0,0,0,4,4,1,1,0,0,0,0-2,2,2,0,0,1-2-2V15a4,4,0,0,0-1.38-3A4,4,0,0,0,6,9Zm16,5a2,2,0,0,1-2-2V6a4,4,0,0,0-4-4,1,1,0,0,0,0,2,2,2,0,0,1,2,2V9a4,4,0,0,0,1.38,3A4,4,0,0,0,18,15v3a2,2,0,0,1-2,2,1,1,0,0,0,0,2,4,4,0,0,0,4-4V15a2,2,0,0,1,2-2,1,1,0,0,0,0-2Z"/></svg>
    </symbol>

    <symbol id="un-comments-alt">
      <svg xmlns="http://www.w3.org/2000/svg" viewBox="0 0 24 24"><path d="M19,8H18V5a3,3,0,0,0-3-3H5A3,3,0,0,0,2,5V17a1,1,0,0,0,.62.92A.84.84,0,0,0,3,18a1,1,0,0,0,.71-.29l2.81-2.82H8v1.44a3,3,0,0,0,3,3h6.92l2.37,2.38A1,1,0,0,0,21,22a.84.84,0,0,0,.38-.08A1,1,0,0,0,22,21V11A3,3,0,0,0,19,8ZM8,11v1.89H6.11a1,1,0,0,0-.71.29L4,14.59V5A1,1,0,0,1,5,4H15a1,1,0,0,1,1,1V8H11A3,3,0,0,0,8,11Zm12,7.59-1-1a1,1,0,0,0-.71-.3H11a1,1,0,0,1-1-1V11a1,1,0,0,1,1-1h8a1,1,0,0,1,1,1Z"/></svg>
    </symbol>

    <symbol id="un-cog">
      <svg xmlns="http://www.w3.org/2000/svg" viewBox="0 0 24 24"><path d="M21.32,9.55l-1.89-.63.89-1.78A1,1,0,0,0,20.13,6L18,3.87a1,1,0,0,0-1.15-.19l-1.78.89-.63-1.89A1,1,0,0,0,13.5,2h-3a1,1,0,0,0-.95.68L8.92,4.57,7.14,3.68A1,1,0,0,0,6,3.87L3.87,6a1,1,0,0,0-.19,1.15l.89,1.78-1.89.63A1,1,0,0,0,2,10.5v3a1,1,0,0,0,.68.95l1.89.63-.89,1.78A1,1,0,0,0,3.87,18L6,20.13a1,1,0,0,0,1.15.19l1.78-.89.63,1.89a1,1,0,0,0,.95.68h3a1,1,0,0,0,.95-.68l.63-1.89,1.78.89A1,1,0,0,0,18,20.13L20.13,18a1,1,0,0,0,.19-1.15l-.89-1.78,1.89-.63A1,1,0,0,0,22,13.5v-3A1,1,0,0,0,21.32,9.55ZM20,12.78l-1.2.4A2,2,0,0,0,17.64,16l.57,1.14-1.1,1.1L16,17.64a2,2,0,0,0-2.79,1.16l-.4,1.2H11.22l-.4-1.2A2,2,0,0,0,8,17.64l-1.14.57-1.1-1.1L6.36,16A2,2,0,0,0,5.2,13.18L4,12.78V11.22l1.2-.4A2,2,0,0,0,6.36,8L5.79,6.89l1.1-1.1L8,6.36A2,2,0,0,0,10.82,5.2l.4-1.2h1.56l.4,1.2A2,2,0,0,0,16,6.36l1.14-.57,1.1,1.1L17.64,8a2,2,0,0,0,1.16,2.79l1.2.4ZM12,8a4,4,0,1,0,4,4A4,4,0,0,0,12,8Zm0,6a2,2,0,1,1,2-2A2,2,0,0,1,12,14Z"/></svg>
    </symbol>

    <symbol id="un-comment-alt">
      <svg xmlns="http://www.w3.org/2000/svg" viewBox="0 0 24 24"><path d="M19,2H5A3,3,0,0,0,2,5V15a3,3,0,0,0,3,3H16.59l3.7,3.71A1,1,0,0,0,21,22a.84.84,0,0,0,.38-.08A1,1,0,0,0,22,21V5A3,3,0,0,0,19,2Zm1,16.59-2.29-2.3A1,1,0,0,0,17,16H5a1,1,0,0,1-1-1V5A1,1,0,0,1,5,4H19a1,1,0,0,1,1,1Z"/></svg>
    </symbol>

    <symbol id="un-heart">
      <svg xmlns="http://www.w3.org/2000/svg" viewBox="0 0 24 24"><path d="M20.16,5A6.29,6.29,0,0,0,12,4.36a6.27,6.27,0,0,0-8.16,9.48l6.21,6.22a2.78,2.78,0,0,0,3.9,0l6.21-6.22A6.27,6.27,0,0,0,20.16,5Zm-1.41,7.46-6.21,6.21a.76.76,0,0,1-1.08,0L5.25,12.43a4.29,4.29,0,0,1,0-6,4.27,4.27,0,0,1,6,0,1,1,0,0,0,1.42,0,4.27,4.27,0,0,1,6,0A4.29,4.29,0,0,1,18.75,12.43Z"/></svg>
    </symbol>

    <symbol id="un-bell-slash">
      <svg xmlns="http://www.w3.org/2000/svg" data-name="Layer 1" viewBox="0 0 24 24"><path d="M11.07,6.12A3.48,3.48,0,0,1,12,6a4,4,0,0,1,4,4v1.34a1,1,0,0,0,2,0V10a6,6,0,0,0-5-5.91V3a1,1,0,0,0-2,0V4.1l-.45.08a1,1,0,0,0,.52,1.94ZM21.71,20.29l-18-18A1,1,0,0,0,2.29,3.71L6.41,7.82A6,6,0,0,0,6,10v3.18A3,3,0,0,0,4,16v2a1,1,0,0,0,1,1H8.14a4,4,0,0,0,7.72,0h1.73l2.7,2.71a1,1,0,0,0,1.42,0A1,1,0,0,0,21.71,20.29ZM8,10a3.31,3.31,0,0,1,0-.55L11.59,13H8Zm4,10a2,2,0,0,1-1.72-1h3.44A2,2,0,0,1,12,20ZM6,17V16a1,1,0,0,1,1-1h6.59l2,2Z"/></svg>
    </symbol>

    <symbol id="un-expand-alt">
      <svg xmlns="http://www.w3.org/2000/svg" viewBox="0 0 24 24"><path d="M9.79,12.79,4,18.59V17a1,1,0,0,0-2,0v4a1,1,0,0,0,.08.38,1,1,0,0,0,.54.54A1,1,0,0,0,3,22H7a1,1,0,0,0,0-2H5.41l5.8-5.79a1,1,0,0,0-1.42-1.42ZM21.92,2.62a1,1,0,0,0-.54-.54A1,1,0,0,0,21,2H17a1,1,0,0,0,0,2h1.59l-5.8,5.79a1,1,0,0,0,0,1.42,1,1,0,0,0,1.42,0L20,5.41V7a1,1,0,0,0,2,0V3A1,1,0,0,0,21.92,2.62Z"/></svg>
    </symbol>

    <symbol id="un-download-alt">
      <svg xmlns="http://www.w3.org/2000/svg" viewBox="0 0 24 24"><path d="M8.29,13.29a1,1,0,0,0,0,1.42l3,3a1,1,0,0,0,1.42,0l3-3a1,1,0,0,0-1.42-1.42L13,14.59V3a1,1,0,0,0-2,0V14.59l-1.29-1.3A1,1,0,0,0,8.29,13.29ZM18,9H16a1,1,0,0,0,0,2h2a1,1,0,0,1,1,1v7a1,1,0,0,1-1,1H6a1,1,0,0,1-1-1V12a1,1,0,0,1,1-1H8A1,1,0,0,0,8,9H6a3,3,0,0,0-3,3v7a3,3,0,0,0,3,3H18a3,3,0,0,0,3-3V12A3,3,0,0,0,18,9Z"/></svg>
    </symbol>

    <symbol id="un-edit">
      <svg xmlns="http://www.w3.org/2000/svg" viewBox="0 0 24 24"><path d="M21,12a1,1,0,0,0-1,1v6a1,1,0,0,1-1,1H5a1,1,0,0,1-1-1V5A1,1,0,0,1,5,4h6a1,1,0,0,0,0-2H5A3,3,0,0,0,2,5V19a3,3,0,0,0,3,3H19a3,3,0,0,0,3-3V13A1,1,0,0,0,21,12ZM6,12.76V17a1,1,0,0,0,1,1h4.24a1,1,0,0,0,.71-.29l6.92-6.93h0L21.71,8a1,1,0,0,0,0-1.42L17.47,2.29a1,1,0,0,0-1.42,0L13.23,5.12h0L6.29,12.05A1,1,0,0,0,6,12.76ZM16.76,4.41l2.83,2.83L18.17,8.66,15.34,5.83ZM8,13.17l5.93-5.93,2.83,2.83L10.83,16H8Z"/></svg>
    </symbol>

    <symbol id="un-ellipsis-h">
      <svg xmlns="http://www.w3.org/2000/svg" viewBox="0 0 24 24"><path d="M12,10a2,2,0,1,0,2,2A2,2,0,0,0,12,10ZM5,10a2,2,0,1,0,2,2A2,2,0,0,0,5,10Zm14,0a2,2,0,1,0,2,2A2,2,0,0,0,19,10Z"/></svg>
    </symbol>

    <symbol id="un-envelope">
      <svg xmlns="http://www.w3.org/2000/svg" viewBox="0 0 24 24"><path d="M19,4H5A3,3,0,0,0,2,7V17a3,3,0,0,0,3,3H19a3,3,0,0,0,3-3V7A3,3,0,0,0,19,4Zm-.41,2-5.88,5.88a1,1,0,0,1-1.42,0L5.41,6ZM20,17a1,1,0,0,1-1,1H5a1,1,0,0,1-1-1V7.41l5.88,5.88a3,3,0,0,0,4.24,0L20,7.41Z"/></svg>
    </symbol>

    <symbol id="un-arrows-h-alt">
      <svg xmlns="http://www.w3.org/2000/svg" viewBox="0 0 24 24"><path d="M21.92,11.62a1,1,0,0,0-.21-.33l-2.5-2.5a1,1,0,0,0-1.42,1.42l.8.79H14a1,1,0,0,0,0,2h4.59l-.8.79a1,1,0,0,0,0,1.42,1,1,0,0,0,1.42,0l2.5-2.5a1,1,0,0,0,.21-.33A1,1,0,0,0,21.92,11.62ZM10,11H5.41l.8-.79A1,1,0,0,0,4.79,8.79l-2.5,2.5a1,1,0,0,0-.21.33,1,1,0,0,0,0,.76,1,1,0,0,0,.21.33l2.5,2.5a1,1,0,0,0,1.42,0,1,1,0,0,0,0-1.42L5.41,13H10a1,1,0,0,0,0-2Z"/></svg>
    </symbol>

    <symbol id="un-eye-slash">
      <svg xmlns="http://www.w3.org/2000/svg" data-name="Layer 1" viewBox="0 0 24 24"><path d="M10.94,6.08A6.93,6.93,0,0,1,12,6c3.18,0,6.17,2.29,7.91,6a15.23,15.23,0,0,1-.9,1.64,1,1,0,0,0-.16.55,1,1,0,0,0,1.86.5,15.77,15.77,0,0,0,1.21-2.3,1,1,0,0,0,0-.79C19.9,6.91,16.1,4,12,4a7.77,7.77,0,0,0-1.4.12,1,1,0,1,0,.34,2ZM3.71,2.29A1,1,0,0,0,2.29,3.71L5.39,6.8a14.62,14.62,0,0,0-3.31,4.8,1,1,0,0,0,0,.8C4.1,17.09,7.9,20,12,20a9.26,9.26,0,0,0,5.05-1.54l3.24,3.25a1,1,0,0,0,1.42,0,1,1,0,0,0,0-1.42Zm6.36,9.19,2.45,2.45A1.81,1.81,0,0,1,12,14a2,2,0,0,1-2-2A1.81,1.81,0,0,1,10.07,11.48ZM12,18c-3.18,0-6.17-2.29-7.9-6A12.09,12.09,0,0,1,6.8,8.21L8.57,10A4,4,0,0,0,14,15.43L15.59,17A7.24,7.24,0,0,1,12,18Z"/></svg>
    </symbol>

    <symbol id="un-eye">
      <svg xmlns="http://www.w3.org/2000/svg" viewBox="0 0 24 24"><path d="M21.92,11.6C19.9,6.91,16.1,4,12,4S4.1,6.91,2.08,11.6a1,1,0,0,0,0,.8C4.1,17.09,7.9,20,12,20s7.9-2.91,9.92-7.6A1,1,0,0,0,21.92,11.6ZM12,18c-3.17,0-6.17-2.29-7.9-6C5.83,8.29,8.83,6,12,6s6.17,2.29,7.9,6C18.17,15.71,15.17,18,12,18ZM12,8a4,4,0,1,0,4,4A4,4,0,0,0,12,8Zm0,6a2,2,0,1,1,2-2A2,2,0,0,1,12,14Z"/></svg>
    </symbol>

    <symbol id="un-image">
      <svg xmlns="http://www.w3.org/2000/svg" viewBox="0 0 24 24"><path d="M19,4H5A3,3,0,0,0,2,7V17a3,3,0,0,0,3,3H19a3,3,0,0,0,3-3V7A3,3,0,0,0,19,4ZM5,18a1,1,0,0,1-1-1V14.58l3.3-3.29a1,1,0,0,1,1.4,0L15.41,18Zm15-1a1,1,0,0,1-1,1h-.77l-3.81-3.83.88-.88a1,1,0,0,1,1.4,0L20,16.58Zm0-3.24-1.88-1.87a3.06,3.06,0,0,0-4.24,0l-.88.88L10.12,9.89a3.06,3.06,0,0,0-4.24,0L4,11.76V7A1,1,0,0,1,5,6H19a1,1,0,0,1,1,1Z"/></svg>
    </symbol>

    <symbol id="un-trash-alt">
      <svg xmlns="http://www.w3.org/2000/svg" viewBox="0 0 24 24"><path d="M10,18a1,1,0,0,0,1-1V11a1,1,0,0,0-2,0v6A1,1,0,0,0,10,18ZM20,6H16V5a3,3,0,0,0-3-3H11A3,3,0,0,0,8,5V6H4A1,1,0,0,0,4,8H5V19a3,3,0,0,0,3,3h8a3,3,0,0,0,3-3V8h1a1,1,0,0,0,0-2ZM10,5a1,1,0,0,1,1-1h2a1,1,0,0,1,1,1V6H10Zm7,14a1,1,0,0,1-1,1H8a1,1,0,0,1-1-1V8H17Zm-3-1a1,1,0,0,0,1-1V11a1,1,0,0,0-2,0v6A1,1,0,0,0,14,18Z"/></svg>
    </symbol>

    <symbol id="un-file-alt">
      <svg xmlns="http://www.w3.org/2000/svg" viewBox="0 0 24 24"><path d="M9,10h1a1,1,0,0,0,0-2H9a1,1,0,0,0,0,2Zm0,2a1,1,0,0,0,0,2h6a1,1,0,0,0,0-2ZM20,8.94a1.31,1.31,0,0,0-.06-.27l0-.09a1.07,1.07,0,0,0-.19-.28h0l-6-6h0a1.07,1.07,0,0,0-.28-.19.32.32,0,0,0-.09,0A.88.88,0,0,0,13.05,2H7A3,3,0,0,0,4,5V19a3,3,0,0,0,3,3H17a3,3,0,0,0,3-3V9S20,9,20,8.94ZM14,5.41,16.59,8H15a1,1,0,0,1-1-1ZM18,19a1,1,0,0,1-1,1H7a1,1,0,0,1-1-1V5A1,1,0,0,1,7,4h5V7a3,3,0,0,0,3,3h3Zm-3-3H9a1,1,0,0,0,0,2h6a1,1,0,0,0,0-2Z"/></svg>
    </symbol>

    <symbol id="un-filter">
      <svg xmlns="http://www.w3.org/2000/svg" viewBox="0 0 24 24"><path d="M19,2H5A3,3,0,0,0,2,5V6.17a3,3,0,0,0,.25,1.2l0,.06a2.81,2.81,0,0,0,.59.86L9,14.41V21a1,1,0,0,0,.47.85A1,1,0,0,0,10,22a1,1,0,0,0,.45-.11l4-2A1,1,0,0,0,15,19V14.41l6.12-6.12a2.81,2.81,0,0,0,.59-.86l0-.06A3,3,0,0,0,22,6.17V5A3,3,0,0,0,19,2ZM13.29,13.29A1,1,0,0,0,13,14v4.38l-2,1V14a1,1,0,0,0-.29-.71L5.41,8H18.59ZM20,6H4V5A1,1,0,0,1,5,4H19a1,1,0,0,1,1,1Z"/></svg>
    </symbol>

    <symbol id="un-asterisk">
      <svg xmlns="http://www.w3.org/2000/svg" data-name="Layer 1" viewBox="0 0 24 24"><path d="M18.562,14.63379,14.00031,12,18.562,9.36621a1.00016,1.00016,0,0,0-1-1.73242L13,10.26776V5a1,1,0,0,0-2,0v5.26776l-4.562-2.634a1.00016,1.00016,0,0,0-1,1.73242L9.99969,12,5.438,14.63379a1.00016,1.00016,0,0,0,1,1.73242L11,13.73224V19a1,1,0,0,0,2,0V13.73224l4.562,2.634a1.00016,1.00016,0,0,0,1-1.73242Z"/></svg>
    </symbol>

    <symbol id="un-folder-open">
      <svg xmlns="http://www.w3.org/2000/svg" data-name="Layer 1" viewBox="0 0 24 24"><path d="M22.78,10.37A1,1,0,0,0,22,10H20V9a3,3,0,0,0-3-3H10.72l-.32-1A3,3,0,0,0,7.56,3H4A3,3,0,0,0,1,6V18a3,3,0,0,0,3,3H18.4a3,3,0,0,0,2.92-2.35L23,11.22A1,1,0,0,0,22.78,10.37ZM5.37,18.22a1,1,0,0,1-1,.78H4a1,1,0,0,1-1-1V6A1,1,0,0,1,4,5H7.56a1,1,0,0,1,1,.68l.54,1.64A1,1,0,0,0,10,8h7a1,1,0,0,1,1,1v1H8a1,1,0,0,0-1,.78Zm14,0a1,1,0,0,1-1,.78H7.21a1.42,1.42,0,0,0,.11-.35L8.8,12h12Z"/></svg>
    </symbol>

    <symbol id="un-folder">
      <svg xmlns="http://www.w3.org/2000/svg" viewBox="0 0 24 24"><path d="M19,5.5H12.72l-.32-1a3,3,0,0,0-2.84-2H5a3,3,0,0,0-3,3v13a3,3,0,0,0,3,3H19a3,3,0,0,0,3-3V8.5A3,3,0,0,0,19,5.5Zm1,13a1,1,0,0,1-1,1H5a1,1,0,0,1-1-1V5.5a1,1,0,0,1,1-1H9.56a1,1,0,0,1,.95.68l.54,1.64A1,1,0,0,0,12,7.5h7a1,1,0,0,1,1,1Z"/></svg>
    </symbol>

    <symbol id="un-home-alt">
      <svg xmlns="http://www.w3.org/2000/svg" viewBox="0 0 24 24"><path d="M20,8h0L14,2.74a3,3,0,0,0-4,0L4,8a3,3,0,0,0-1,2.26V19a3,3,0,0,0,3,3H18a3,3,0,0,0,3-3V10.25A3,3,0,0,0,20,8ZM14,20H10V15a1,1,0,0,1,1-1h2a1,1,0,0,1,1,1Zm5-1a1,1,0,0,1-1,1H16V15a3,3,0,0,0-3-3H11a3,3,0,0,0-3,3v5H6a1,1,0,0,1-1-1V10.25a1,1,0,0,1,.34-.75l6-5.25a1,1,0,0,1,1.32,0l6,5.25a1,1,0,0,1,.34.75Z"/></svg>
    </symbol>

    <symbol id="un-info-circle">
      <svg id="Layer_1" data-name="Layer 1" xmlns="http://www.w3.org/2000/svg" viewBox="0 0 24 24"><path d="M12,2A10,10,0,1,0,22,12,10.01114,10.01114,0,0,0,12,2Zm0,18a8,8,0,1,1,8-8A8.00917,8.00917,0,0,1,12,20Zm0-8.5a1,1,0,0,0-1,1v3a1,1,0,0,0,2,0v-3A1,1,0,0,0,12,11.5Zm0-4a1.25,1.25,0,1,0,1.25,1.25A1.25,1.25,0,0,0,12,7.5Z"/></svg>
    </symbol>

    <symbol id="un-italic">
      <svg xmlns="http://www.w3.org/2000/svg" data-name="Layer 1" viewBox="0 0 24 24"><path d="M17,6H11a1,1,0,0,0,0,2h1.52l-3.2,8H7a1,1,0,0,0,0,2h6a1,1,0,0,0,0-2H11.48l3.2-8H17a1,1,0,0,0,0-2Z"/></svg>
    </symbol>

    <symbol id="un-key-skeleton">
      <svg xmlns="http://www.w3.org/2000/svg" viewBox="0 0 24 24"><path d="M21,4.41l.71-.7a1,1,0,1,0-1.42-1.42L18.89,3.7h0L16.06,6.53h0L9.75,12.83a5,5,0,1,0,1.42,1.42l5.59-5.6,2.12,2.13a1,1,0,1,0,1.41-1.42L18.17,7.24l1.42-1.41.7.7a1,1,0,1,0,1.42-1.41ZM7,20a3,3,0,1,1,3-3A3,3,0,0,1,7,20Z"/></svg>
    </symbol>

    <symbol id="un-layer-group">
      <svg xmlns="http://www.w3.org/2000/svg" viewBox="0 0 24 24"><path d="M2.5,8.86l9,5.2a1,1,0,0,0,1,0l9-5.2A1,1,0,0,0,22,8a1,1,0,0,0-.5-.87l-9-5.19a1,1,0,0,0-1,0l-9,5.19A1,1,0,0,0,2,8,1,1,0,0,0,2.5,8.86ZM12,4l7,4-7,4L5,8Zm8.5,7.17L12,16,3.5,11.13a1,1,0,0,0-1.37.37,1,1,0,0,0,.37,1.36l9,5.2a1,1,0,0,0,1,0l9-5.2a1,1,0,0,0,.37-1.36A1,1,0,0,0,20.5,11.13Zm0,4L12,20,3.5,15.13a1,1,0,0,0-1.37.37,1,1,0,0,0,.37,1.36l9,5.2a1,1,0,0,0,1,0l9-5.2a1,1,0,0,0,.37-1.36A1,1,0,0,0,20.5,15.13Z"/></svg>
    </symbol>

    <symbol id="un-link-alt">
      <svg xmlns="http://www.w3.org/2000/svg" viewBox="0 0 24 24"><path d="M12.11,15.39,8.23,19.27a2.52,2.52,0,0,1-3.5,0,2.47,2.47,0,0,1,0-3.5l3.88-3.88a1,1,0,1,0-1.42-1.42L3.31,14.36a4.48,4.48,0,0,0,6.33,6.33l3.89-3.88a1,1,0,0,0-1.42-1.42ZM20.69,3.31a4.49,4.49,0,0,0-6.33,0L10.47,7.19a1,1,0,1,0,1.42,1.42l3.88-3.88a2.52,2.52,0,0,1,3.5,0,2.47,2.47,0,0,1,0,3.5l-3.88,3.88a1,1,0,0,0,0,1.42,1,1,0,0,0,1.42,0l3.88-3.89A4.49,4.49,0,0,0,20.69,3.31ZM8.83,15.17a1,1,0,0,0,.71.29,1,1,0,0,0,.71-.29l4.92-4.92a1,1,0,1,0-1.42-1.42L8.83,13.75A1,1,0,0,0,8.83,15.17Z"/></svg>
    </symbol>

    <symbol id="un-list-ol">
      <svg xmlns="http://www.w3.org/2000/svg" enable-background="new 0 0 24 24" viewBox="0 0 24 24"><path d="M7,20H4v-0.1C4,19.4,4.4,19,4.9,19c1.4,0,2.6-0.9,3-2.2c0.4-1.6-0.5-3.3-2.1-3.7c-1.3-0.4-2.7,0.2-3.4,1.4c-0.3,0.5-0.1,1.1,0.4,1.4c0.5,0.3,1.1,0.1,1.4-0.4c0,0,0,0,0,0c0.3-0.5,0.9-0.6,1.4-0.3c0.1,0.1,0.2,0.1,0.2,0.2C6,15.7,6,16,6,16.3c-0.2,0.4-0.6,0.7-1,0.7C3.3,17,2,18.3,2,19.9V21c0,0.6,0.4,1,1,1h4c0.6,0,1-0.4,1-1S7.6,20,7,20z M11,7h10c0.6,0,1-0.4,1-1s-0.4-1-1-1H11c-0.6,0-1,0.4-1,1S10.4,7,11,7z M7,9H6V3c0-0.6-0.4-1-1-1S4,2.4,4,3v1H3C2.4,4,2,4.4,2,5s0.4,1,1,1h1v3H3c-0.6,0-1,0.4-1,1s0.4,1,1,1h4c0.6,0,1-0.4,1-1S7.6,9,7,9z M21,16H11c-0.6,0-1,0.4-1,1s0.4,1,1,1h10c0.6,0,1-0.4,1-1S21.6,16,21,16z"/></svg>
    </symbol>

    <symbol id="un-list-ul">
      <svg xmlns="http://www.w3.org/2000/svg" viewBox="0 0 24 24"><path d="M3.71,16.29a1,1,0,0,0-.33-.21,1,1,0,0,0-.76,0,1,1,0,0,0-.33.21,1,1,0,0,0-.21.33,1,1,0,0,0,.21,1.09,1.15,1.15,0,0,0,.33.21.94.94,0,0,0,.76,0,1.15,1.15,0,0,0,.33-.21,1,1,0,0,0,.21-1.09A1,1,0,0,0,3.71,16.29ZM7,8H21a1,1,0,0,0,0-2H7A1,1,0,0,0,7,8ZM3.71,11.29a1,1,0,0,0-1.09-.21,1.15,1.15,0,0,0-.33.21,1,1,0,0,0-.21.33.94.94,0,0,0,0,.76,1.15,1.15,0,0,0,.21.33,1.15,1.15,0,0,0,.33.21.94.94,0,0,0,.76,0,1.15,1.15,0,0,0,.33-.21,1.15,1.15,0,0,0,.21-.33.94.94,0,0,0,0-.76A1,1,0,0,0,3.71,11.29ZM21,11H7a1,1,0,0,0,0,2H21a1,1,0,0,0,0-2ZM3.71,6.29a1,1,0,0,0-.33-.21,1,1,0,0,0-1.09.21,1.15,1.15,0,0,0-.21.33.94.94,0,0,0,0,.76,1.15,1.15,0,0,0,.21.33,1.15,1.15,0,0,0,.33.21,1,1,0,0,0,1.09-.21,1.15,1.15,0,0,0,.21-.33.94.94,0,0,0,0-.76A1.15,1.15,0,0,0,3.71,6.29ZM21,16H7a1,1,0,0,0,0,2H21a1,1,0,0,0,0-2Z"/></svg>
    </symbol>

    <symbol id="un-lock">
      <svg xmlns="http://www.w3.org/2000/svg" viewBox="0 0 24 24"><path d="M17,9V7A5,5,0,0,0,7,7V9a3,3,0,0,0-3,3v7a3,3,0,0,0,3,3H17a3,3,0,0,0,3-3V12A3,3,0,0,0,17,9ZM9,7a3,3,0,0,1,6,0V9H9Zm9,12a1,1,0,0,1-1,1H7a1,1,0,0,1-1-1V12a1,1,0,0,1,1-1H17a1,1,0,0,1,1,1Z"/></svg>
    </symbol>

    <symbol id="un-users-alt">
      <svg xmlns="http://www.w3.org/2000/svg" viewBox="0 0 24 24"><path d="M12.3,12.22A4.92,4.92,0,0,0,14,8.5a5,5,0,0,0-10,0,4.92,4.92,0,0,0,1.7,3.72A8,8,0,0,0,1,19.5a1,1,0,0,0,2,0,6,6,0,0,1,12,0,1,1,0,0,0,2,0A8,8,0,0,0,12.3,12.22ZM9,11.5a3,3,0,1,1,3-3A3,3,0,0,1,9,11.5Zm9.74.32A5,5,0,0,0,15,3.5a1,1,0,0,0,0,2,3,3,0,0,1,3,3,3,3,0,0,1-1.5,2.59,1,1,0,0,0-.5.84,1,1,0,0,0,.45.86l.39.26.13.07a7,7,0,0,1,4,6.38,1,1,0,0,0,2,0A9,9,0,0,0,18.74,11.82Z"/></svg>
    </symbol>

    <symbol id="un-arrow-right">
      <svg xmlns="http://www.w3.org/2000/svg" data-name="Layer 1" viewBox="0 0 24 24"><path d="M17.92,11.62a1,1,0,0,0-.21-.33l-5-5a1,1,0,0,0-1.42,1.42L14.59,11H7a1,1,0,0,0,0,2h7.59l-3.3,3.29a1,1,0,0,0,0,1.42,1,1,0,0,0,1.42,0l5-5a1,1,0,0,0,.21-.33A1,1,0,0,0,17.92,11.62Z"/></svg>
    </symbol>

    <symbol id="un-user">
      <svg xmlns="http://www.w3.org/2000/svg" viewBox="0 0 24 24"><path d="M15.71,12.71a6,6,0,1,0-7.42,0,10,10,0,0,0-6.22,8.18,1,1,0,0,0,2,.22,8,8,0,0,1,15.9,0,1,1,0,0,0,1,.89h.11a1,1,0,0,0,.88-1.1A10,10,0,0,0,15.71,12.71ZM12,12a4,4,0,1,1,4-4A4,4,0,0,1,12,12Z"/></svg>
    </symbol>

    <symbol id="un-user-plus">
      <svg xmlns="http://www.w3.org/2000/svg" viewBox="0 0 24 24"><path d="M21,10.5H20v-1a1,1,0,0,0-2,0v1H17a1,1,0,0,0,0,2h1v1a1,1,0,0,0,2,0v-1h1a1,1,0,0,0,0-2Zm-7.7,1.72A4.92,4.92,0,0,0,15,8.5a5,5,0,0,0-10,0,4.92,4.92,0,0,0,1.7,3.72A8,8,0,0,0,2,19.5a1,1,0,0,0,2,0,6,6,0,0,1,12,0,1,1,0,0,0,2,0A8,8,0,0,0,13.3,12.22ZM10,11.5a3,3,0,1,1,3-3A3,3,0,0,1,10,11.5Z"/></svg>
    </symbol>

    <symbol id="un-at">
      <svg xmlns="http://www.w3.org/2000/svg" viewBox="0 0 24 24"><path d="M12,2a10,10,0,1,0,5,18.66,1,1,0,1,0-1-1.73A8,8,0,1,1,20,12v.75a1.75,1.75,0,0,1-3.5,0V8.5a1,1,0,0,0-1-1,1,1,0,0,0-1,.79A4.45,4.45,0,0,0,12,7.5,4.5,4.5,0,1,0,15.3,15,3.74,3.74,0,0,0,22,12.75V12A10,10,0,0,0,12,2Zm0,12.5A2.5,2.5,0,1,1,14.5,12,2.5,2.5,0,0,1,12,14.5Z"/></svg>
    </symbol>

    <symbol id="un-corner-up-left">
      <svg xmlns="http://www.w3.org/2000/svg" viewBox="0 0 24 24"><path d="M14.69,6.63h-7l2.92-2.92a1,1,0,0,0,0-1.42,1,1,0,0,0-1.41,0L4.61,6.92a1,1,0,0,0-.22.33,1,1,0,0,0,0,.76,1.19,1.19,0,0,0,.22.33L9.24,13a1,1,0,0,0,.7.3,1,1,0,0,0,.71-1.71L7.73,8.63h7a3,3,0,0,1,3,3V21a1,1,0,0,0,2,0V11.63A5,5,0,0,0,14.69,6.63Z"/></svg>
    </symbol>

    <symbol id="un-plus">
      <svg xmlns="http://www.w3.org/2000/svg" viewBox="0 0 24 24"><path d="M19,11H13V5a1,1,0,0,0-2,0v6H5a1,1,0,0,0,0,2h6v6a1,1,0,0,0,2,0V13h6a1,1,0,0,0,0-2Z"/></svg>
    </symbol>

    <symbol id="un-feedback">
      <svg xmlns="http://www.w3.org/2000/svg" viewBox="0 0 24 24"><path d="M22,1H15a2.44,2.44,0,0,0-2.41,2l-.92,5.05a2.44,2.44,0,0,0,.53,2,2.47,2.47,0,0,0,1.88.88H17l-.25.66A3.26,3.26,0,0,0,19.75,16a1,1,0,0,0,.92-.59l2.24-5.06A1,1,0,0,0,23,10V2A1,1,0,0,0,22,1ZM21,9.73l-1.83,4.13a1.33,1.33,0,0,1-.45-.4,1.23,1.23,0,0,1-.14-1.16l.38-1a1.68,1.68,0,0,0-.2-1.58A1.7,1.7,0,0,0,17.35,9H14.06a.46.46,0,0,1-.35-.16.5.5,0,0,1-.09-.37l.92-5A.44.44,0,0,1,15,3h6ZM9.94,13.05H7.05l.25-.66A3.26,3.26,0,0,0,4.25,8a1,1,0,0,0-.92.59L1.09,13.65a1,1,0,0,0-.09.4v8a1,1,0,0,0,1,1H9a2.44,2.44,0,0,0,2.41-2l.92-5a2.44,2.44,0,0,0-.53-2A2.47,2.47,0,0,0,9.94,13.05Zm-.48,7.58A.44.44,0,0,1,9,21H3V14.27l1.83-4.13a1.33,1.33,0,0,1,.45.4,1.23,1.23,0,0,1,.14,1.16l-.38,1a1.68,1.68,0,0,0,.2,1.58,1.7,1.7,0,0,0,1.41.74H9.94a.46.46,0,0,1,.35.16.5.5,0,0,1,.09.37Z"/></svg>
    </symbol>

    <symbol id="un-search">
      <svg xmlns="http://www.w3.org/2000/svg" viewBox="0 0 24 24"><path d="M21.71,20.29,18,16.61A9,9,0,1,0,16.61,18l3.68,3.68a1,1,0,0,0,1.42,0A1,1,0,0,0,21.71,20.29ZM11,18a7,7,0,1,1,7-7A7,7,0,0,1,11,18Z"/></svg>
    </symbol>

    <symbol id="un-signout">
      <svg xmlns="http://www.w3.org/2000/svg" viewBox="0 0 24 24"><path d="M4,12a1,1,0,0,0,1,1h7.59l-2.3,2.29a1,1,0,0,0,0,1.42,1,1,0,0,0,1.42,0l4-4a1,1,0,0,0,.21-.33,1,1,0,0,0,0-.76,1,1,0,0,0-.21-.33l-4-4a1,1,0,1,0-1.42,1.42L12.59,11H5A1,1,0,0,0,4,12ZM17,2H7A3,3,0,0,0,4,5V8A1,1,0,0,0,6,8V5A1,1,0,0,1,7,4H17a1,1,0,0,1,1,1V19a1,1,0,0,1-1,1H7a1,1,0,0,1-1-1V16a1,1,0,0,0-2,0v3a3,3,0,0,0,3,3H17a3,3,0,0,0,3-3V5A3,3,0,0,0,17,2Z"/></svg>
    </symbol>

    <symbol id="un-smile">
      <svg xmlns="http://www.w3.org/2000/svg" data-name="Layer 1" viewBox="0 0 24 24"><path d="M14.36,14.23a3.76,3.76,0,0,1-4.72,0,1,1,0,0,0-1.28,1.54,5.68,5.68,0,0,0,7.28,0,1,1,0,1,0-1.28-1.54ZM9,11a1,1,0,1,0-1-1A1,1,0,0,0,9,11Zm6-2a1,1,0,1,0,1,1A1,1,0,0,0,15,9ZM12,2A10,10,0,1,0,22,12,10,10,0,0,0,12,2Zm0,18a8,8,0,1,1,8-8A8,8,0,0,1,12,20Z"/></svg>
    </symbol>

    <symbol id="un-align-center">
      <svg xmlns="http://www.w3.org/2000/svg" viewBox="0 0 24 24"><path d="M3,7H21a1,1,0,0,0,0-2H3A1,1,0,0,0,3,7ZM7,9a1,1,0,0,0,0,2H17a1,1,0,0,0,0-2Zm14,4H3a1,1,0,0,0,0,2H21a1,1,0,0,0,0-2Zm-4,4H7a1,1,0,0,0,0,2H17a1,1,0,0,0,0-2Z"/></svg>
    </symbol>

    <symbol id="un-sync">
      <svg xmlns="http://www.w3.org/2000/svg" viewBox="0 0 24 24"><path d="M19.91,15.51H15.38a1,1,0,0,0,0,2h2.4A8,8,0,0,1,4,12a1,1,0,0,0-2,0,10,10,0,0,0,16.88,7.23V21a1,1,0,0,0,2,0V16.5A1,1,0,0,0,19.91,15.51ZM12,2A10,10,0,0,0,5.12,4.77V3a1,1,0,0,0-2,0V7.5a1,1,0,0,0,1,1h4.5a1,1,0,0,0,0-2H6.22A8,8,0,0,1,20,12a1,1,0,0,0,2,0A10,10,0,0,0,12,2Z"/></svg>
    </symbol>

    <symbol id="un-times-circle">
      <svg xmlns="http://www.w3.org/2000/svg" viewBox="0 0 24 24"><path d="M15.71,8.29a1,1,0,0,0-1.42,0L12,10.59,9.71,8.29A1,1,0,0,0,8.29,9.71L10.59,12l-2.3,2.29a1,1,0,0,0,0,1.42,1,1,0,0,0,1.42,0L12,13.41l2.29,2.3a1,1,0,0,0,1.42,0,1,1,0,0,0,0-1.42L13.41,12l2.3-2.29A1,1,0,0,0,15.71,8.29Zm3.36-3.36A10,10,0,1,0,4.93,19.07,10,10,0,1,0,19.07,4.93ZM17.66,17.66A8,8,0,1,1,20,12,7.95,7.95,0,0,1,17.66,17.66Z"/></svg>
    </symbol>

    <symbol id="un-times">
      <svg xmlns="http://www.w3.org/2000/svg" viewBox="0 0 24 24"><path d="M13.41,12l4.3-4.29a1,1,0,1,0-1.42-1.42L12,10.59,7.71,6.29A1,1,0,0,0,6.29,7.71L10.59,12l-4.3,4.29a1,1,0,0,0,0,1.42,1,1,0,0,0,1.42,0L12,13.41l4.29,4.3a1,1,0,0,0,1.42,0,1,1,0,0,0,0-1.42Z"/></svg>
    </symbol>

    <symbol id="un-toggle-off">
      <svg xmlns="http://www.w3.org/2000/svg" viewBox="0 0 24 24"><path d="M8,8.5A3.5,3.5,0,1,0,11.5,12,3.5,3.5,0,0,0,8,8.5Zm0,5A1.5,1.5,0,1,1,9.5,12,1.5,1.5,0,0,1,8,13.5ZM16,5H8A7,7,0,0,0,8,19h8A7,7,0,0,0,16,5Zm0,12H8A5,5,0,0,1,8,7h8a5,5,0,0,1,0,10Z"/></svg>
    </symbol>

    <symbol id="un-toggle-on">
      <svg xmlns="http://www.w3.org/2000/svg" viewBox="0 0 24 24"><path d="M16,8.5A3.5,3.5,0,1,0,19.5,12,3.5,3.5,0,0,0,16,8.5Zm0,5A1.5,1.5,0,1,1,17.5,12,1.5,1.5,0,0,1,16,13.5ZM16,5H8A7,7,0,0,0,8,19h8A7,7,0,0,0,16,5Zm0,12H8A5,5,0,0,1,8,7h8a5,5,0,0,1,0,10Z"/></svg>
    </symbol>

    <symbol id="un-upload">
      <svg xmlns="http://www.w3.org/2000/svg" viewBox="0 0 24 24"><path d="M8.71,7.71,11,5.41V15a1,1,0,0,0,2,0V5.41l2.29,2.3a1,1,0,0,0,1.42,0,1,1,0,0,0,0-1.42l-4-4a1,1,0,0,0-.33-.21,1,1,0,0,0-.76,0,1,1,0,0,0-.33.21l-4,4A1,1,0,1,0,8.71,7.71ZM21,12a1,1,0,0,0-1,1v6a1,1,0,0,1-1,1H5a1,1,0,0,1-1-1V13a1,1,0,0,0-2,0v6a3,3,0,0,0,3,3H19a3,3,0,0,0,3-3V13A1,1,0,0,0,21,12Z"/></svg>
    </symbol>

    <symbol id="un-video">
      <svg xmlns="http://www.w3.org/2000/svg" viewBox="0 0 24 24"><path d="M21.53,7.15a1,1,0,0,0-1,0L17,8.89A3,3,0,0,0,14,6H5A3,3,0,0,0,2,9v6a3,3,0,0,0,3,3h9a3,3,0,0,0,3-2.89l3.56,1.78A1,1,0,0,0,21,17a1,1,0,0,0,.53-.15A1,1,0,0,0,22,16V8A1,1,0,0,0,21.53,7.15ZM15,15a1,1,0,0,1-1,1H5a1,1,0,0,1-1-1V9A1,1,0,0,1,5,8h9a1,1,0,0,1,1,1Zm5-.62-3-1.5V11.12l3-1.5Z"/></svg>
    </symbol>

    <symbol id="un-wrench">
      <svg xmlns="http://www.w3.org/2000/svg" data-name="Layer 1" viewBox="0 0 24 24"><path d="M21.71,15.58l-4.52-4.51a6.85,6.85,0,0,0,.14-1.4A7.67,7.67,0,0,0,6.42,2.72a1,1,0,0,0-.57.74,1,1,0,0,0,.28.88l4.35,4.34-1.8,1.8L4.34,6.13a1,1,0,0,0-.88-.27,1,1,0,0,0-.74.56,7.67,7.67,0,0,0,7,10.91,6.85,6.85,0,0,0,1.4-.14l4.51,4.52a1,1,0,0,0,1.42,0,1,1,0,0,0,0-1.42l-4.9-4.9a1,1,0,0,0-.95-.26,5.88,5.88,0,0,1-1.48.2A5.67,5.67,0,0,1,4,9.67a6,6,0,0,1,.08-1L8,12.6a1,1,0,0,0,1.42,0L12.6,9.39A1,1,0,0,0,12.6,8L8.71,4.08a6.12,6.12,0,0,1,1-.08,5.67,5.67,0,0,1,5.66,5.67,5.88,5.88,0,0,1-.2,1.48,1,1,0,0,0,.26.95l4.9,4.9a1,1,0,0,0,1.42-1.42Z"/></svg>
    </symbol>
</svg>
